<mxfile host="app.diagrams.net" agent="Mozilla/5.0 (Windows NT 10.0; Win64; x64) AppleWebKit/537.36 (KHTML, like Gecko) Chrome/129.0.0.0 Safari/537.36" version="24.7.16">
  <diagram name="Página-1" id="miGA_bKoF1yfxgbj3YUr">
    <mxGraphModel dx="3560" dy="4505" grid="0" gridSize="10" guides="1" tooltips="1" connect="1" arrows="1" fold="1" page="0" pageScale="1" pageWidth="827" pageHeight="1169" math="0" shadow="0">
      <root>
        <mxCell id="0" />
        <mxCell id="1" parent="0" />
        <mxCell id="NIPlwNjgI011Yp7bzS7l-2" value=":SistemaDeAutenticacao" style="rounded=0;whiteSpace=wrap;html=1;" parent="1" vertex="1">
          <mxGeometry x="300" y="31" width="148" height="60" as="geometry" />
        </mxCell>
        <mxCell id="NG6Yj-zdbsLsh7TXREm2-1" value="" style="endArrow=none;dashed=1;html=1;dashPattern=1 3;strokeWidth=2;rounded=0;fontSize=12;startSize=8;endSize=8;curved=1;exitX=0.5;exitY=0;exitDx=0;exitDy=0;" edge="1" parent="1" source="NG6Yj-zdbsLsh7TXREm2-4">
          <mxGeometry width="50" height="50" relative="1" as="geometry">
            <mxPoint x="76" y="91" as="sourcePoint" />
            <mxPoint x="76" y="778" as="targetPoint" />
          </mxGeometry>
        </mxCell>
        <mxCell id="NG6Yj-zdbsLsh7TXREm2-4" value="" style="rounded=0;whiteSpace=wrap;html=1;" vertex="1" parent="1">
          <mxGeometry x="58" y="142" width="33" height="501" as="geometry" />
        </mxCell>
        <mxCell id="NG6Yj-zdbsLsh7TXREm2-6" value="" style="endArrow=none;dashed=1;html=1;dashPattern=1 3;strokeWidth=2;rounded=0;fontSize=12;startSize=8;endSize=8;curved=1;exitX=0.5;exitY=1;exitDx=0;exitDy=0;" edge="1" parent="1" source="NIPlwNjgI011Yp7bzS7l-2" target="NG6Yj-zdbsLsh7TXREm2-5">
          <mxGeometry width="50" height="50" relative="1" as="geometry">
            <mxPoint x="374" y="91" as="sourcePoint" />
            <mxPoint x="376" y="361" as="targetPoint" />
          </mxGeometry>
        </mxCell>
        <mxCell id="NG6Yj-zdbsLsh7TXREm2-5" value="" style="rounded=0;whiteSpace=wrap;html=1;" vertex="1" parent="1">
          <mxGeometry x="357.5" y="144" width="33" height="406" as="geometry" />
        </mxCell>
        <mxCell id="NG6Yj-zdbsLsh7TXREm2-7" value="" style="endArrow=classic;html=1;rounded=0;fontSize=12;startSize=8;endSize=8;curved=1;exitX=1;exitY=0;exitDx=0;exitDy=0;entryX=0;entryY=0;entryDx=0;entryDy=0;" edge="1" parent="1" source="NG6Yj-zdbsLsh7TXREm2-4" target="NG6Yj-zdbsLsh7TXREm2-5">
          <mxGeometry width="50" height="50" relative="1" as="geometry">
            <mxPoint x="609" y="174" as="sourcePoint" />
            <mxPoint x="355" y="135" as="targetPoint" />
          </mxGeometry>
        </mxCell>
        <mxCell id="NG6Yj-zdbsLsh7TXREm2-8" value="recuperarSenha()" style="text;html=1;align=center;verticalAlign=middle;whiteSpace=wrap;rounded=0;fontSize=16;" vertex="1" parent="1">
          <mxGeometry x="147" y="109" width="136" height="30" as="geometry" />
        </mxCell>
        <mxCell id="NG6Yj-zdbsLsh7TXREm2-9" value="" style="endArrow=classic;html=1;rounded=0;fontSize=12;startSize=8;endSize=8;curved=1;entryX=0;entryY=0;entryDx=0;entryDy=0;exitX=0.985;exitY=0.31;exitDx=0;exitDy=0;exitPerimeter=0;" edge="1" parent="1" source="NG6Yj-zdbsLsh7TXREm2-5" target="NG6Yj-zdbsLsh7TXREm2-10">
          <mxGeometry width="50" height="50" relative="1" as="geometry">
            <mxPoint x="408" y="266" as="sourcePoint" />
            <mxPoint x="576" y="268" as="targetPoint" />
          </mxGeometry>
        </mxCell>
        <mxCell id="NG6Yj-zdbsLsh7TXREm2-10" value="" style="rounded=0;whiteSpace=wrap;html=1;" vertex="1" parent="1">
          <mxGeometry x="588" y="272" width="33" height="121" as="geometry" />
        </mxCell>
        <mxCell id="NG6Yj-zdbsLsh7TXREm2-11" value="verificarBiometria()" style="text;html=1;align=center;verticalAlign=middle;whiteSpace=wrap;rounded=0;fontSize=16;" vertex="1" parent="1">
          <mxGeometry x="417" y="230" width="136" height="30" as="geometry" />
        </mxCell>
        <mxCell id="NG6Yj-zdbsLsh7TXREm2-12" value=":APIBiometria" style="rounded=0;whiteSpace=wrap;html=1;" vertex="1" parent="1">
          <mxGeometry x="544.5" y="31" width="120" height="60" as="geometry" />
        </mxCell>
        <mxCell id="NG6Yj-zdbsLsh7TXREm2-16" value="" style="endArrow=none;dashed=1;html=1;dashPattern=1 3;strokeWidth=2;rounded=0;fontSize=12;startSize=8;endSize=8;curved=1;exitX=0.5;exitY=1;exitDx=0;exitDy=0;entryX=0.5;entryY=0;entryDx=0;entryDy=0;" edge="1" parent="1" source="NG6Yj-zdbsLsh7TXREm2-12" target="NG6Yj-zdbsLsh7TXREm2-10">
          <mxGeometry width="50" height="50" relative="1" as="geometry">
            <mxPoint x="384" y="101" as="sourcePoint" />
            <mxPoint x="384" y="149" as="targetPoint" />
          </mxGeometry>
        </mxCell>
        <mxCell id="NG6Yj-zdbsLsh7TXREm2-19" value="" style="endArrow=classic;html=1;rounded=0;fontSize=12;startSize=8;endSize=8;curved=1;exitX=0.5;exitY=1;exitDx=0;exitDy=0;entryX=1;entryY=0.608;entryDx=0;entryDy=0;entryPerimeter=0;" edge="1" parent="1" source="NG6Yj-zdbsLsh7TXREm2-10" target="NG6Yj-zdbsLsh7TXREm2-5">
          <mxGeometry width="50" height="50" relative="1" as="geometry">
            <mxPoint x="418" y="406" as="sourcePoint" />
            <mxPoint x="398" y="396" as="targetPoint" />
          </mxGeometry>
        </mxCell>
        <mxCell id="NG6Yj-zdbsLsh7TXREm2-21" value="enviarEmail()" style="text;html=1;align=center;verticalAlign=middle;whiteSpace=wrap;rounded=0;fontSize=16;" vertex="1" parent="1">
          <mxGeometry x="147" y="517" width="136" height="30" as="geometry" />
        </mxCell>
        <mxCell id="NG6Yj-zdbsLsh7TXREm2-22" value="" style="endArrow=classic;html=1;rounded=0;fontSize=12;startSize=8;endSize=8;curved=1;entryX=1.061;entryY=0.812;entryDx=0;entryDy=0;entryPerimeter=0;exitX=0;exitY=1;exitDx=0;exitDy=0;" edge="1" parent="1" source="NG6Yj-zdbsLsh7TXREm2-5" target="NG6Yj-zdbsLsh7TXREm2-4">
          <mxGeometry width="50" height="50" relative="1" as="geometry">
            <mxPoint x="307" y="406" as="sourcePoint" />
            <mxPoint x="401" y="412" as="targetPoint" />
          </mxGeometry>
        </mxCell>
        <mxCell id="NG6Yj-zdbsLsh7TXREm2-24" value="" style="edgeStyle=none;curved=1;rounded=0;orthogonalLoop=1;jettySize=auto;html=1;fontSize=12;startSize=8;endSize=8;entryX=0.5;entryY=0;entryDx=0;entryDy=0;" edge="1" parent="1" target="NG6Yj-zdbsLsh7TXREm2-4">
          <mxGeometry relative="1" as="geometry">
            <mxPoint x="74" y="72" as="sourcePoint" />
            <mxPoint x="161" y="92" as="targetPoint" />
          </mxGeometry>
        </mxCell>
        <mxCell id="NG6Yj-zdbsLsh7TXREm2-23" value="Usuário" style="shape=umlActor;verticalLabelPosition=bottom;verticalAlign=top;html=1;outlineConnect=0;" vertex="1" parent="1">
          <mxGeometry x="61" y="-15" width="30" height="60" as="geometry" />
        </mxCell>
        <mxCell id="NG6Yj-zdbsLsh7TXREm2-27" value="boolean" style="text;html=1;align=center;verticalAlign=middle;whiteSpace=wrap;rounded=0;fontSize=16;" vertex="1" parent="1">
          <mxGeometry x="417" y="358" width="136" height="30" as="geometry" />
        </mxCell>
        <mxCell id="NG6Yj-zdbsLsh7TXREm2-38" value="" style="endArrow=classic;html=1;rounded=0;fontSize=12;startSize=8;endSize=8;curved=1;exitX=0.955;exitY=0.707;exitDx=0;exitDy=0;exitPerimeter=0;entryX=0.985;entryY=0.914;entryDx=0;entryDy=0;entryPerimeter=0;" edge="1" parent="1" source="NG6Yj-zdbsLsh7TXREm2-5" target="NG6Yj-zdbsLsh7TXREm2-5">
          <mxGeometry width="50" height="50" relative="1" as="geometry">
            <mxPoint x="288" y="208" as="sourcePoint" />
            <mxPoint x="338" y="158" as="targetPoint" />
            <Array as="points">
              <mxPoint x="541" y="476" />
            </Array>
          </mxGeometry>
        </mxCell>
        <mxCell id="NG6Yj-zdbsLsh7TXREm2-39" value="gerarNovaSenha()" style="text;html=1;align=center;verticalAlign=middle;whiteSpace=wrap;rounded=0;fontSize=16;" vertex="1" parent="1">
          <mxGeometry x="473" y="456" width="136" height="30" as="geometry" />
        </mxCell>
      </root>
    </mxGraphModel>
  </diagram>
</mxfile>
